# Blender v3.6.5 OBJ File: ''
# www.blender.org
mtllib banner.mtl
o ForestBanner_Cube.001
v -0.639851 -1.361686 0.027391
v -0.639851 -0.081738 0.049345
v -0.639851 -1.361728 0.006640
v -0.639851 -0.081738 -0.020589
v 0.640149 -1.361686 0.027391
v 0.640149 -0.081738 0.049345
v 0.640149 -1.361728 0.006640
v 0.640149 -0.081738 -0.020589
v -0.319851 -0.081738 -0.020589
v 0.000149 -0.081738 -0.020589
v 0.320149 -0.081738 -0.020589
v 0.320149 -1.610620 0.007141
v 0.000149 -1.818280 0.007560
v -0.319851 -1.610620 0.007141
v 0.320149 -0.081738 0.049345
v 0.000149 -0.081738 0.049345
v -0.319851 -0.081738 0.049345
v -0.319851 -1.610578 0.027892
v 0.000149 -1.818238 0.028311
v 0.320149 -1.610578 0.027892
v -0.639851 0.083329 0.049345
v -0.639851 0.083329 -0.020589
v 0.320149 0.083329 -0.020589
v 0.640149 0.083328 -0.020589
v 0.640149 0.083328 0.049345
v -0.319851 0.083329 0.049345
v -0.319851 0.083329 -0.020589
v 0.320149 0.083329 0.049345
v 0.320149 -0.021739 -0.146180
v 0.640149 -0.021739 -0.146180
v -0.319851 -0.021739 0.095536
v -0.639851 -0.021739 0.095536
v -0.639851 -0.021739 -0.146180
v -0.319851 -0.021739 -0.146180
v 0.640149 -0.021739 0.095536
v 0.320149 -0.021739 0.095536
v 0.320149 0.041649 -0.146180
v 0.640149 0.041649 -0.146180
v -0.319851 0.041649 0.095536
v -0.639851 0.041649 0.095536
v -0.639851 0.041649 -0.146180
v -0.319851 0.041649 -0.146180
v 0.640149 0.041649 0.095536
v 0.320149 0.041649 0.095536
v 0.870527 0.000207 0.000800
v 0.870527 0.007262 -0.003518
v 0.728004 0.000207 -0.057838
v -0.732376 0.000207 -0.041958
v 0.728004 0.050394 -0.028862
v -0.732376 0.050394 -0.012982
v 0.728004 0.050394 0.029090
v -0.732376 0.050394 0.044970
v 0.728004 0.000207 0.058065
v -0.732376 0.000207 0.073945
v 0.728004 -0.049981 0.029090
v -0.732376 -0.049981 0.044970
v 0.728004 -0.049981 -0.028862
v -0.732376 -0.049981 -0.012982
v 0.769165 0.050394 -0.028420
v 0.769165 0.000207 -0.057396
v -0.773537 0.000207 -0.041958
v -0.773537 0.050394 -0.012982
v 0.769165 0.050394 0.029531
v -0.773537 0.050394 0.044970
v 0.769165 0.000207 0.058507
v -0.773537 0.000207 0.073945
v 0.769165 -0.049981 0.029531
v -0.773537 -0.049981 0.044970
v 0.769165 -0.049981 -0.028420
v -0.773537 -0.049981 -0.012982
v 0.870527 0.000207 -0.007591
v -0.874899 0.000207 0.007847
v -0.874899 0.000207 0.015994
v -0.874899 0.007262 0.011921
v 0.870527 0.007262 0.004629
v -0.874899 0.007262 0.020067
v 0.870527 0.000207 0.008702
v -0.874899 0.000207 0.024140
v 0.870527 -0.006848 0.004629
v -0.874899 -0.006848 0.020067
v 0.870527 -0.006848 -0.003518
v -0.874899 -0.006848 0.011921
v -0.639851 -0.935004 0.034727
v -0.639851 -0.508322 0.042064
v -0.639851 -0.508430 -0.011475
v -0.639851 -0.935079 -0.002418
v 0.640149 -0.508430 -0.011475
v 0.640149 -0.935079 -0.002418
v 0.640149 -0.508322 0.042064
v 0.640149 -0.935004 0.034727
v 0.320149 -0.591286 0.042231
v 0.320149 -1.100932 0.035062
v 0.000149 -0.660506 0.042371
v 0.000149 -1.239372 0.035341
v -0.319851 -0.591286 0.042231
v -0.319851 -1.100932 0.035062
v -0.319851 -0.591394 -0.011308
v -0.319851 -1.101007 -0.002083
v 0.000149 -0.660614 -0.011168
v 0.000149 -1.239447 -0.001804
v 0.320149 -0.591394 -0.011308
v 0.320149 -1.101007 -0.002083
v -0.639851 -1.148404 0.002111
v 0.640149 -1.148404 0.002111
v 0.640149 -1.148345 0.031059
v 0.320149 -1.355755 0.031477
v 0.000149 -1.528805 0.031826
v -0.319851 -1.355755 0.031477
v -0.319851 -1.355814 0.002529
v 0.000149 -1.528864 0.002878
v 0.320149 -1.355814 0.002529
v -0.639851 -1.148345 0.031059
v -0.639851 -0.721663 0.038396
v -0.639851 -0.721754 -0.006946
v 0.640149 -0.721754 -0.006946
v 0.640149 -0.721663 0.038396
v 0.320149 -0.846109 0.038647
v 0.000149 -0.949939 0.038856
v -0.319851 -0.846109 0.038647
v -0.319851 -0.846200 -0.006695
v 0.000149 -0.950030 -0.006486
v 0.320149 -0.846200 -0.006695
v -0.639851 -0.294981 0.045733
v -0.639851 -0.295105 -0.016003
v 0.640149 -0.295105 -0.016003
v 0.640149 -0.294981 0.045733
v 0.320149 -0.336463 0.045816
v 0.000149 -0.371073 0.045886
v -0.319851 -0.336463 0.045816
v -0.319851 -0.336587 -0.015920
v 0.000149 -0.371197 -0.015850
v 0.320149 -0.336587 -0.015920
vt 0.100106 0.361668
vt 0.100106 0.361883
vt 0.098521 0.361852
vt 0.098521 0.361698
vt 0.095694 0.343999
vt 0.097930 0.347453
vt 0.095628 0.347452
vt 0.092943 0.343998
vt 0.085241 0.361883
vt 0.085241 0.361668
vt 0.086826 0.361698
vt 0.086826 0.361852
vt 0.073391 0.344090
vt 0.075629 0.347543
vt 0.073326 0.347543
vt 0.070640 0.344090
vt 0.089838 0.361698
vt 0.089838 0.361852
vt 0.077314 0.361515
vt 0.077314 0.362035
vt 0.076087 0.362035
vt 0.076087 0.361515
vt 0.077481 0.359241
vt 0.075898 0.359241
vt 0.076298 0.358037
vt 0.076906 0.358037
vt 0.089726 0.358714
vt 0.089726 0.359385
vt 0.086657 0.359385
vt 0.086657 0.358714
vt 0.083589 0.359385
vt 0.083589 0.358714
vt 0.095508 0.361852
vt 0.095508 0.361698
vt 0.092673 0.361852
vt 0.092673 0.361698
vt 0.075629 0.333730
vt 0.073391 0.337183
vt 0.070640 0.337183
vt 0.073326 0.333730
vt 0.071523 0.340637
vt 0.068400 0.340637
vt 0.097935 0.333640
vt 0.095696 0.337092
vt 0.092946 0.337091
vt 0.095632 0.333639
vt 0.093827 0.340545
vt 0.090704 0.340544
vt 0.081975 0.355573
vt 0.081975 0.356244
vt 0.078907 0.356244
vt 0.078907 0.355573
vt 0.094185 0.355493
vt 0.094185 0.356163
vt 0.091117 0.356163
vt 0.091117 0.355493
vt 0.107840 0.359672
vt 0.109423 0.359672
vt 0.109023 0.360115
vt 0.108415 0.360115
vt 0.108033 0.362035
vt 0.108033 0.361515
vt 0.109260 0.361515
vt 0.109260 0.362035
vt 0.081975 0.359455
vt 0.078907 0.359455
vt 0.078907 0.358120
vt 0.081975 0.358120
vt 0.107840 0.359002
vt 0.109423 0.359002
vt 0.108479 0.361172
vt 0.108950 0.361172
vt 0.077481 0.359911
vt 0.075898 0.359911
vt 0.091117 0.354288
vt 0.094185 0.354288
vt 0.094185 0.354896
vt 0.091117 0.354896
vt 0.078907 0.357513
vt 0.081975 0.357513
vt 0.078907 0.354369
vt 0.081975 0.354369
vt 0.081975 0.354977
vt 0.078907 0.354977
vt 0.094185 0.358040
vt 0.091117 0.358040
vt 0.091117 0.357432
vt 0.094185 0.357432
vt 0.076397 0.361172
vt 0.076868 0.361172
vt 0.076906 0.360354
vt 0.076298 0.360354
vt 0.076868 0.362968
vt 0.076397 0.362968
vt 0.078907 0.353643
vt 0.081975 0.353643
vt 0.108950 0.362968
vt 0.108479 0.362968
vt 0.091117 0.353562
vt 0.094185 0.353562
vt 0.108415 0.357798
vt 0.109023 0.357798
vt 0.094185 0.359374
vt 0.091117 0.359374
vt 0.650885 0.610146
vt 0.650748 0.614637
vt 0.649861 0.613954
vt 0.650041 0.610201
vt 0.686398 0.619823
vt 0.685977 0.615222
vt 0.686831 0.614452
vt 0.687304 0.618327
vt 0.687047 0.624812
vt 0.649546 0.624812
vt 0.650304 0.619474
vt 0.650368 0.601071
vt 0.650758 0.605704
vt 0.649903 0.606419
vt 0.649447 0.602482
vt 0.685826 0.610719
vt 0.685999 0.606193
vt 0.686858 0.607066
vt 0.686712 0.610755
vt 0.688256 0.622642
vt 0.649744 0.596025
vt 0.648522 0.598086
vt 0.648306 0.622130
vt 0.649311 0.617965
vt 0.686465 0.601497
vt 0.687191 0.596245
vt 0.688525 0.598558
vt 0.687384 0.603201
vt 0.647814 0.610641
vt 0.647867 0.610100
vt 0.647679 0.609119
vt 0.647400 0.609054
vt 0.647662 0.611043
vt 0.689018 0.609706
vt 0.688873 0.610099
vt 0.689008 0.611574
vt 0.689279 0.611625
vt 0.647383 0.611054
vt 0.689268 0.609690
vt 0.688825 0.610625
vt 0.688867 0.611154
vt 0.647822 0.609552
vt 0.689079 0.610635
vt 0.647593 0.610075
vt 0.106322 0.340549
vt 0.106694 0.344002
vt 0.103944 0.344001
vt 0.103198 0.340548
vt 0.100075 0.340547
vt 0.101194 0.344001
vt 0.098444 0.344000
vt 0.096951 0.340546
vt 0.106696 0.337096
vt 0.103946 0.337095
vt 0.101196 0.337094
vt 0.098446 0.337093
vt 0.107145 0.333643
vt 0.104842 0.333642
vt 0.102540 0.333641
vt 0.100237 0.333640
vt 0.084018 0.340637
vt 0.084391 0.344090
vt 0.081641 0.344090
vt 0.080894 0.340637
vt 0.077771 0.340637
vt 0.078891 0.344090
vt 0.076141 0.344090
vt 0.074647 0.340637
vt 0.084391 0.337183
vt 0.081641 0.337183
vt 0.078891 0.337183
vt 0.076141 0.337183
vt 0.084839 0.333730
vt 0.082536 0.333730
vt 0.080234 0.333730
vt 0.077931 0.333730
vt 0.084839 0.347543
vt 0.082536 0.347543
vt 0.080234 0.347543
vt 0.077931 0.347543
vt 0.078899 0.362005
vt 0.078899 0.361546
vt 0.080485 0.361576
vt 0.080485 0.361974
vt 0.082070 0.361944
vt 0.082070 0.361607
vt 0.083655 0.361637
vt 0.083655 0.361913
vt 0.107141 0.347456
vt 0.104838 0.347455
vt 0.102536 0.347454
vt 0.100233 0.347454
vt 0.106447 0.361546
vt 0.106447 0.362005
vt 0.104862 0.361974
vt 0.104862 0.361576
vt 0.103277 0.361607
vt 0.103277 0.361944
vt 0.101691 0.361913
vt 0.101691 0.361637
vt 0.109444 0.344003
vt 0.109443 0.347456
vt 0.087141 0.344090
vt 0.087141 0.347543
vt 0.087141 0.333730
vt 0.087141 0.337183
vt 0.087141 0.340637
vt 0.109447 0.333644
vt 0.109446 0.337097
vt 0.109445 0.340550
vn -1.0000 0.0000 -0.0000
vn 0.0098 -0.0183 -0.9998
vn 0.0121 -0.0195 -0.9997
vn 0.0125 -0.0195 -0.9997
vn 0.0119 -0.0191 -0.9997
vn 1.0000 -0.0000 0.0000
vn -0.0098 -0.0143 0.9998
vn -0.0122 -0.0155 0.9998
vn -0.0125 -0.0155 0.9998
vn -0.0119 -0.0151 0.9998
vn 0.6139 -0.7893 0.0016
vn 0.0000 1.0000 -0.0000
vn -0.6139 -0.7893 0.0016
vn -0.5444 -0.8388 0.0017
vn 0.5444 -0.8388 0.0017
vn 0.0121 -0.0155 0.9998
vn 0.0098 -0.0143 0.9998
vn 0.0119 -0.0151 0.9998
vn 0.0125 -0.0155 0.9998
vn 0.0078 -0.0130 0.9999
vn 0.0090 -0.0130 0.9999
vn -0.0075 -0.0130 0.9999
vn -0.0090 -0.0130 0.9999
vn -0.0122 -0.0195 -0.9997
vn -0.0098 -0.0183 -0.9998
vn -0.0119 -0.0191 -0.9997
vn -0.0125 -0.0195 -0.9997
vn -0.0076 -0.0171 -0.9998
vn -0.0090 -0.0171 -0.9998
vn 0.0075 -0.0171 -0.9998
vn 0.0090 -0.0171 -0.9998
vn 0.0000 -0.9023 -0.4311
vn 0.0000 0.0000 1.0000
vn 0.0000 -0.0000 -1.0000
vn 0.0000 0.9491 -0.3150
vn 0.0000 0.7424 0.6699
vn 0.0000 -0.6100 0.7924
vn 0.0047 0.5000 0.8660
vn 0.0000 0.5000 0.8660
vn -0.0094 0.5000 -0.8660
vn -0.0047 0.5000 -0.8660
vn -0.0000 -1.0000 0.0000
vn -0.0093 -0.5000 0.8660
vn 0.0093 0.5000 -0.8660
vn -0.0047 -0.5000 -0.8660
vn 0.0000 -0.5000 -0.8660
vn 0.0094 0.5000 0.8660
vn 0.0000 0.5000 -0.8660
vn 0.0094 -0.5000 0.8660
vn 0.0047 -0.5000 0.8660
vn 0.0093 -0.5000 -0.8660
vn 0.0000 -0.5000 0.8660
vn -0.0093 0.5000 0.8660
vn -0.0094 -0.5000 -0.8660
vn -0.3916 0.4601 0.7969
vn -0.3916 -0.4601 -0.7969
vn -0.3916 0.9202 0.0000
vn 0.3915 -0.9202 0.0000
vn 0.3915 0.4601 -0.7969
vn -0.3916 0.4601 -0.7969
vn 0.3915 -0.4601 -0.7969
vn 0.3915 -0.4601 0.7969
vn 0.3915 0.4601 0.7969
vn -0.3916 -0.9202 0.0000
vn 0.3915 0.9202 0.0000
vn -0.3916 -0.4601 0.7969
vn 0.0000 -0.0172 -0.9999
vn 0.0020 -0.0184 -0.9998
vn 0.0039 -0.0183 -0.9998
vn 0.0000 -0.0171 -0.9999
vn 0.0059 -0.0183 -0.9998
vn 0.0079 -0.0183 -0.9998
vn -0.0020 -0.0184 -0.9998
vn -0.0039 -0.0183 -0.9998
vn -0.0059 -0.0183 -0.9998
vn -0.0079 -0.0183 -0.9998
vn -0.0022 -0.0197 -0.9998
vn -0.0055 -0.0195 -0.9998
vn -0.0076 -0.0195 -0.9998
vn -0.0099 -0.0195 -0.9998
vn 0.0000 -0.0129 0.9999
vn -0.0020 -0.0142 0.9999
vn -0.0039 -0.0143 0.9999
vn 0.0000 -0.0130 0.9999
vn -0.0059 -0.0143 0.9999
vn -0.0079 -0.0143 0.9999
vn 0.0020 -0.0142 0.9999
vn 0.0039 -0.0143 0.9999
vn 0.0059 -0.0143 0.9999
vn 0.0079 -0.0143 0.9999
vn 0.0022 -0.0154 0.9999
vn 0.0055 -0.0155 0.9999
vn 0.0075 -0.0155 0.9999
vn 0.0098 -0.0155 0.9998
vn -0.0022 -0.0154 0.9999
vn -0.0055 -0.0155 0.9999
vn -0.0076 -0.0155 0.9999
vn -0.0099 -0.0155 0.9998
vn 0.0022 -0.0197 -0.9998
vn 0.0055 -0.0195 -0.9998
vn 0.0075 -0.0195 -0.9998
vn 0.0099 -0.0195 -0.9998
vn 0.0010 -0.0185 -0.9998
vn 0.0012 -0.0198 -0.9998
vn -0.0010 -0.0140 0.9999
vn -0.0011 -0.0153 0.9999
vn 0.0011 -0.0153 0.9999
vn 0.0010 -0.0140 0.9999
vn 0.0000 -0.0128 0.9999
vn -0.0012 -0.0198 -0.9998
vn -0.0010 -0.0185 -0.9998
vn 0.0000 -0.0173 -0.9999
usemtl MainMaterial
s 1
f 112/1/1 103/2/1 3/3/1 1/4/1
f 111/5/2 104/6/3 7/7/4 12/8/5
f 104/9/6 105/10/6 5/11/6 7/12/6
f 108/13/7 112/14/8 1/15/9 18/16/10
f 20/17/11 12/18/11 7/12/11 5/11/11
f 6/19/6 8/20/6 24/21/6 25/22/6
f 11/23/1 23/24/1 37/25/1 29/26/1
f 15/27/12 11/28/12 10/29/12 16/30/12
f 16/30/12 10/29/12 9/31/12 17/32/12
f 1/4/13 3/3/13 14/33/13 18/34/13
f 18/34/14 14/33/14 13/35/14 19/36/14
f 19/36/15 13/35/15 12/18/15 20/17/15
f 105/37/16 106/38/17 20/39/18 5/40/19
f 106/38/17 107/41/20 19/42/21 20/39/18
f 107/41/22 108/13/7 18/16/10 19/42/23
f 103/43/24 109/44/25 14/45/26 3/46/27
f 109/44/25 110/47/28 13/48/29 14/45/26
f 110/47/30 111/5/2 12/8/5 13/48/31
f 26/49/12 27/50/12 22/51/12 21/52/12
f 25/53/12 24/54/12 23/55/12 28/56/12
f 17/57/6 26/58/6 39/59/6 31/60/6
f 4/61/1 2/62/1 21/63/1 22/64/1
f 9/65/32 4/66/32 33/67/32 34/68/32
f 17/57/6 9/69/6 27/70/6 26/58/6
f 21/63/1 2/62/1 32/71/1 40/72/1
f 11/23/1 15/73/1 28/74/1 23/24/1
f 36/75/33 35/76/33 43/77/33 44/78/33
f 34/68/34 33/67/34 41/79/34 42/80/34
f 32/81/33 31/82/33 39/83/33 40/84/33
f 30/85/34 29/86/34 37/87/34 38/88/34
f 6/19/6 25/22/6 43/89/6 35/90/6
f 23/55/35 24/54/35 38/88/35 37/87/35
f 28/74/1 15/73/1 36/91/1 44/92/1
f 24/21/6 8/20/6 30/93/6 38/94/6
f 26/49/36 21/52/36 40/84/36 39/83/36
f 2/95/37 17/96/37 31/82/37 32/81/37
f 4/61/1 22/64/1 41/97/1 33/98/1
f 22/51/35 27/50/35 42/80/35 41/79/35
f 15/99/37 6/100/37 35/76/37 36/75/37
f 27/70/6 9/69/6 34/101/6 42/102/6
f 8/103/32 11/104/32 29/86/32 30/85/32
f 25/53/36 28/56/36 44/78/36 43/77/36
f 54/105/38 52/106/38 64/107/39 66/108/39
f 49/109/12 51/110/12 63/111/12 59/112/12
f 47/113/40 48/114/41 50/115/41 49/109/40
f 58/116/42 56/117/42 68/118/42 70/119/42
f 53/120/43 55/121/43 67/122/43 65/123/43
f 49/109/12 50/115/12 52/106/12 51/110/12
f 47/113/44 49/109/44 59/112/44 60/124/44
f 48/125/45 58/116/45 70/119/46 61/126/46
f 51/110/47 52/106/38 54/105/38 53/120/47
f 50/115/41 48/114/41 61/127/48 62/128/48
f 52/106/12 50/115/12 62/128/12 64/107/12
f 53/120/49 54/105/50 56/117/50 55/121/49
f 57/129/51 47/130/51 60/131/51 69/132/51
f 56/117/50 54/105/50 66/108/52 68/118/52
f 55/121/42 56/117/42 58/116/42 57/129/42
f 51/110/53 53/120/53 65/123/53 63/111/53
f 55/121/42 57/129/42 69/132/42 67/122/42
f 57/129/54 58/116/45 48/125/45 47/130/54
f 66/108/55 64/107/55 76/133/55 78/134/55
f 61/126/56 70/119/56 82/135/56 72/136/56
f 64/107/57 62/128/57 74/137/57 76/133/57
f 67/122/58 69/132/58 81/138/58 79/139/58
f 60/124/59 59/112/59 46/140/59 71/141/59
f 62/128/60 61/127/60 72/142/60 74/137/60
f 69/132/61 60/131/61 71/143/61 81/138/61
f 65/123/62 67/122/62 79/139/62 77/144/62
f 63/111/63 65/123/63 77/144/63 75/145/63
f 70/119/64 68/118/64 80/146/64 82/135/64
f 59/112/65 63/111/65 75/145/65 46/140/65
f 68/118/66 66/108/66 78/134/66 80/146/66
f 45/147/6 71/141/6 46/140/6
f 73/148/1 74/137/1 72/142/1
f 45/147/6 46/140/6 75/145/6
f 73/148/1 76/133/1 74/137/1
f 45/147/6 75/145/6 77/144/6
f 73/148/1 78/134/1 76/133/1
f 45/147/6 77/144/6 79/139/6
f 73/148/1 80/146/1 78/134/1
f 45/147/6 79/139/6 81/138/6
f 73/148/1 82/135/1 80/146/1
f 45/147/6 81/138/6 71/143/6
f 73/148/1 72/136/1 82/135/1
f 131/149/67 132/150/68 101/151/69 99/152/70
f 121/153/70 122/154/71 102/155/72 100/156/70
f 130/157/73 131/149/67 99/152/70 97/158/74
f 120/159/75 121/153/70 100/156/70 98/160/76
f 124/161/77 130/157/73 97/158/74 85/162/78
f 114/163/79 120/159/75 98/160/76 86/164/80
f 128/165/81 129/166/82 95/167/83 93/168/84
f 118/169/84 119/170/85 96/171/86 94/172/84
f 127/173/87 128/165/81 93/168/84 91/174/88
f 117/175/89 118/169/84 94/172/84 92/176/90
f 126/177/91 127/173/87 91/174/88 89/178/92
f 116/179/93 117/175/89 92/176/90 90/180/94
f 129/166/82 123/181/95 84/182/96 95/167/83
f 119/170/85 113/183/97 83/184/98 96/171/86
f 125/185/6 126/186/6 89/187/6 87/188/6
f 115/189/6 116/190/6 90/191/6 88/192/6
f 132/150/68 125/193/99 87/194/100 101/151/69
f 122/154/71 115/195/101 88/196/102 102/155/72
f 123/197/1 124/198/1 85/199/1 84/200/1
f 113/201/1 114/202/1 86/203/1 83/204/1
f 100/156/70 102/155/72 111/5/2 110/47/30
f 98/160/76 100/156/70 110/47/28 109/44/25
f 86/164/80 98/160/76 109/44/25 103/43/24
f 94/172/84 96/171/86 108/13/7 107/41/22
f 92/176/90 94/172/84 107/41/20 106/38/17
f 90/180/94 92/176/90 106/38/17 105/37/16
f 96/171/86 83/184/98 112/14/8 108/13/7
f 88/192/6 90/191/6 105/10/6 104/9/6
f 102/155/72 88/196/102 104/6/3 111/5/2
f 83/204/1 86/203/1 103/2/1 112/1/1
f 84/200/1 85/199/1 114/202/1 113/201/1
f 101/151/69 87/194/100 115/195/101 122/154/71
f 87/188/6 89/187/6 116/190/6 115/189/6
f 95/167/83 84/182/96 113/183/97 119/170/85
f 89/178/92 91/174/88 117/175/89 116/179/93
f 91/174/88 93/168/84 118/169/84 117/175/89
f 93/168/84 95/167/83 119/170/85 118/169/84
f 85/162/78 97/158/74 120/159/75 114/163/79
f 97/158/74 99/152/70 121/153/70 120/159/75
f 99/152/70 101/151/69 122/154/71 121/153/70
f 2/62/1 4/61/1 124/198/1 123/197/1
f 11/205/103 8/206/104 125/193/99 132/150/68
f 8/20/6 6/19/6 126/186/6 125/185/6
f 17/207/105 2/208/106 123/181/95 129/166/82
f 6/209/107 15/210/108 127/173/87 126/177/91
f 15/210/108 16/211/109 128/165/81 127/173/87
f 16/211/109 17/207/105 129/166/82 128/165/81
f 4/212/110 9/213/111 130/157/73 124/161/77
f 9/213/111 10/214/112 131/149/67 130/157/73
f 10/214/112 11/205/103 132/150/68 131/149/67
