# Blender v3.6.5 OBJ File: ''
# www.blender.org
mtllib castle.mtl
o ForestCastle_Cube.030
v -2.964064 -0.009724 2.816314
v -2.964064 5.918425 2.816314
v -2.964064 -0.009725 -2.783685
v -2.964064 5.918425 -2.783686
v 2.964085 -0.009724 2.816314
v 2.964085 5.918425 2.816314
v 2.964085 -0.009725 -2.783685
v 2.964085 5.918425 -2.783686
v -2.964064 0.412577 2.816314
v -2.964064 5.451504 2.816314
v -2.964064 5.451503 -2.783686
v -2.964064 0.412576 -2.783685
v 2.964085 5.451503 -2.783686
v 2.964085 0.412576 -2.783685
v 2.964085 5.451504 2.816314
v 2.964085 0.412577 2.816314
v -2.667657 0.517052 2.536315
v -2.667657 5.347027 2.536314
v -2.667657 5.347027 -2.503686
v -2.667657 0.517051 -2.503685
v 2.667678 5.347027 -2.503686
v 2.667678 0.517051 -2.503685
v 2.667678 5.347027 2.536314
v 2.667678 0.517052 2.536315
v -1.778434 5.918425 -2.783686
v -0.592805 5.918425 -2.783686
v 0.592825 5.918425 -2.783686
v 1.778455 5.918425 -2.783686
v 1.778455 5.918425 2.816314
v 0.592825 5.918425 2.816314
v -0.592805 5.918425 2.816314
v -1.778434 5.918425 2.816314
v -1.630231 -0.009724 2.816314
v 1.630252 -0.009724 2.816314
v -1.778434 5.451504 2.816314
v -0.592805 5.451504 2.816314
v 0.592825 5.451504 2.816314
v 1.778455 5.451504 2.816314
v -1.630231 0.412577 2.816314
v 1.630252 0.412577 2.816314
v 1.778455 5.451503 -2.783686
v 0.592825 5.451503 -2.783686
v -0.592805 5.451503 -2.783686
v -1.778434 5.451503 -2.783686
v -1.600590 5.347027 2.536314
v -0.533523 5.347027 2.536314
v 0.533544 5.347027 2.536314
v 1.600610 5.347027 2.536314
v -1.617779 0.517052 2.536315
v 0.000011 5.918425 -2.783686
v 1.600610 0.517052 2.536315
v -2.964064 5.918425 1.771134
v -2.964064 5.918425 0.651134
v -2.964064 5.918425 -0.468866
v -2.964064 5.918425 -1.588866
v 2.964085 5.918425 -1.588866
v 2.964085 5.918425 -0.468866
v 2.964085 5.918425 0.651134
v 2.964085 5.918425 1.771134
v 2.964085 5.451503 1.771134
v 2.964085 5.451503 0.651134
v 2.964085 5.451503 -0.468866
v 2.964085 5.451503 -1.588865
v -2.964064 5.451503 -1.588865
v -2.964064 5.451503 -0.468866
v -2.964064 5.451503 0.651134
v -2.964064 5.451503 1.771134
v 1.778455 5.918425 -1.588866
v 1.778455 5.918425 -0.468866
v 1.778455 5.918425 0.651134
v 1.778455 5.918425 1.771134
v 0.592825 5.918425 -1.588866
v 0.592825 5.918425 1.771134
v -0.592805 5.918425 -1.588866
v -0.592805 5.918425 1.771134
v -1.778434 5.918425 -1.588866
v -1.778434 5.918425 -0.468866
v -1.778434 5.918425 0.651134
v -1.778434 5.918425 1.771134
v -2.964064 6.595143 -1.588866
v -2.964064 6.595143 -2.783686
v 1.778455 6.595143 -2.783686
v 2.964085 6.595143 -2.783686
v 2.964085 6.595143 1.771134
v 2.964085 6.595143 2.816314
v -1.778434 6.595143 2.816314
v -2.964064 6.595143 2.816314
v -1.778434 6.595143 -2.783686
v -0.592805 6.595143 -2.783686
v 0.592825 6.595143 -2.783686
v 1.778455 6.595143 2.816314
v 0.592825 6.595143 2.816314
v -0.592805 6.595143 2.816314
v 1.778455 6.595143 1.771134
v 0.592825 6.595143 1.771134
v -0.592805 6.595143 1.771134
v -1.778434 6.595143 1.771134
v -2.964064 6.595143 1.771134
v -2.964064 6.595143 0.651134
v -2.964064 6.595143 -0.468866
v 2.964085 6.595143 -1.588866
v 2.964085 6.595143 -0.468866
v 2.964085 6.595143 0.651134
v 1.778455 6.595143 -1.588866
v 1.778455 6.595143 -0.468866
v 1.778455 6.595143 0.651134
v 0.592825 6.595143 -1.588866
v -0.592805 6.595143 -1.588866
v -1.778434 6.595143 -1.588866
v -1.778434 6.595143 -0.468866
v -1.778434 6.595143 0.651134
v -2.742413 6.965830 1.966528
v -2.000086 6.965830 1.966528
v 2.000106 6.965830 1.966528
v 2.742434 6.965830 1.966528
v -1.617337 -0.005140 2.345494
v 0.000014 -0.005140 2.345494
v 1.617364 -0.005140 2.345494
v -2.000086 6.965830 -1.812235
v 2.000106 6.965830 -1.812235
v 2.742434 6.965830 -1.812235
v 2.000106 6.965830 2.620919
v 2.742434 6.965830 2.620919
v -2.000086 6.965830 -2.560317
v -2.742413 6.965830 2.620919
v -2.000086 6.965830 2.620919
v 2.742434 6.965830 -2.560317
v 2.000106 6.965830 -2.560317
v -2.742413 6.965830 -2.560317
v -2.742413 6.965830 -1.812235
v 1.600610 3.524856 2.536314
v 0.533544 4.117670 2.536314
v -0.533523 4.117670 2.536314
v -1.600590 3.524856 2.536314
v -1.778434 5.416618 1.771134
v -1.778434 5.416618 0.651134
v -1.778434 5.416618 -0.468866
v -1.778434 5.416618 -1.588865
v 0.000011 5.451503 -2.783686
v -0.592805 5.416618 1.771134
v 0.000011 5.347027 2.536314
v -0.592805 5.416618 0.651134
v -0.592805 5.416618 -0.468866
v -0.592805 5.416618 -1.588865
v 0.592825 5.416618 1.771134
v 0.592825 5.416618 0.651134
v 0.592825 5.416618 -0.468866
v 0.592825 5.416618 -1.588865
v 1.778455 5.416618 1.771134
v 1.778455 5.416618 0.651134
v 1.778455 5.416618 -0.468866
v 1.778455 5.416618 -1.588865
v 0.000011 4.117670 2.536314
v 1.600614 3.529440 2.360518
v 1.600614 0.521637 2.360518
v -1.600586 3.529440 2.360518
v -1.617776 0.521637 2.360518
v -0.533519 4.122254 2.360518
v 0.000014 4.122254 2.360518
v 0.533548 4.122254 2.360518
vt 0.123695 0.683576
vt 0.123695 0.685898
vt 0.121373 0.685898
vt 0.121373 0.683576
vt 0.090999 0.673545
vt 0.093784 0.673431
vt 0.101183 0.678221
vt 0.088402 0.681706
vt 0.153537 0.695170
vt 0.155714 0.696565
vt 0.155631 0.697655
vt 0.152527 0.695937
vt 0.192361 0.671659
vt 0.194977 0.672021
vt 0.194217 0.672722
vt 0.193585 0.672627
vt 0.192844 0.674619
vt 0.194626 0.673565
vt 0.195145 0.673867
vt 0.193268 0.675966
vt 0.169282 0.696324
vt 0.168485 0.698218
vt 0.167970 0.697650
vt 0.168955 0.695839
vt 0.158856 0.701579
vt 0.169175 0.698803
vt 0.158799 0.702612
vt 0.148230 0.696327
vt 0.148678 0.695574
vt 0.189898 0.661099
vt 0.188565 0.660697
vt 0.188420 0.660131
vt 0.190149 0.660429
vt 0.196116 0.665845
vt 0.196170 0.664336
vt 0.196667 0.664039
vt 0.196834 0.665907
vt 0.183407 0.666640
vt 0.182467 0.667964
vt 0.181817 0.667836
vt 0.182704 0.666109
vt 0.094767 0.670136
vt 0.101183 0.664400
vt 0.086458 0.681042
vt 0.088289 0.674535
vt 0.169989 0.691888
vt 0.155841 0.695647
vt 0.168740 0.691205
vt 0.196113 0.674477
vt 0.193130 0.677388
vt 0.181365 0.670783
vt 0.180306 0.671866
vt 0.180650 0.667442
vt 0.119051 0.681254
vt 0.119051 0.683576
vt 0.116729 0.683576
vt 0.116729 0.681254
vt 0.183700 0.675694
vt 0.184246 0.674464
vt 0.119051 0.685898
vt 0.116729 0.685898
vt 0.187363 0.672244
vt 0.187926 0.671572
vt 0.188548 0.671900
vt 0.188294 0.672773
vt 0.193746 0.673078
vt 0.193788 0.672830
vt 0.194038 0.672881
vt 0.193992 0.673096
vt 0.197806 0.663436
vt 0.193701 0.662031
vt 0.192856 0.661585
vt 0.121373 0.678932
vt 0.121373 0.681254
vt 0.119051 0.678932
vt 0.194940 0.663540
vt 0.195395 0.662925
vt 0.193277 0.662680
vt 0.192602 0.662129
vt 0.191640 0.661895
vt 0.191962 0.661204
vt 0.153495 0.694353
vt 0.183459 0.667776
vt 0.183779 0.668311
vt 0.183522 0.668253
vt 0.183418 0.668021
vt 0.185157 0.668471
vt 0.182900 0.670348
vt 0.183223 0.668599
vt 0.185341 0.673155
vt 0.187478 0.670304
vt 0.149530 0.695331
vt 0.158933 0.700929
vt 0.189096 0.674410
vt 0.188738 0.676129
vt 0.187620 0.664625
vt 0.186255 0.666180
vt 0.186117 0.665158
vt 0.186610 0.664791
vt 0.189087 0.663110
vt 0.190948 0.663610
vt 0.192609 0.664315
vt 0.194211 0.665386
vt 0.170042 0.696294
vt 0.190013 0.671244
vt 0.194143 0.673233
vt 0.193564 0.673288
vt 0.191713 0.663194
vt 0.192217 0.663480
vt 0.123695 0.681254
vt 0.110939 0.699284
vt 0.108715 0.690316
vt 0.113610 0.699284
vt 0.193573 0.665735
vt 0.192269 0.664912
vt 0.187006 0.666669
vt 0.186116 0.668207
vt 0.194054 0.667355
vt 0.193260 0.667146
vt 0.193358 0.669265
vt 0.194547 0.668147
vt 0.194250 0.668669
vt 0.188304 0.669322
vt 0.190344 0.670288
vt 0.188147 0.665105
vt 0.190708 0.664283
vt 0.191700 0.670864
vt 0.192654 0.668954
vt 0.195560 0.665087
vt 0.195732 0.664611
vt 0.184677 0.664890
vt 0.187436 0.661718
vt 0.188701 0.661198
vt 0.188344 0.661557
vt 0.186059 0.663271
vt 0.195316 0.664382
vt 0.195567 0.664689
vt 0.195392 0.664583
vt 0.090700 0.669517
vt 0.088654 0.667734
vt 0.091139 0.668821
vt 0.089126 0.661691
vt 0.196601 0.667918
vt 0.195436 0.669833
vt 0.196222 0.670028
vt 0.195811 0.672267
vt 0.195891 0.667783
vt 0.186945 0.661150
vt 0.185485 0.662721
vt 0.184092 0.664395
vt 0.189350 0.663875
vt 0.188755 0.661941
vt 0.189102 0.661467
vt 0.188563 0.661530
vt 0.188719 0.661695
vt 0.195060 0.664872
vt 0.195269 0.664777
vt 0.195462 0.664885
vt 0.188887 0.661520
vt 0.192027 0.662718
vt 0.192586 0.662953
vt 0.170325 0.692935
vt 0.185706 0.664707
vt 0.186202 0.664333
vt 0.188728 0.661381
vt 0.195090 0.668367
vt 0.194816 0.668912
vt 0.183021 0.668058
vt 0.183295 0.668335
vt 0.183214 0.668109
vt 0.151793 0.694593
vt 0.169920 0.695331
vt 0.090291 0.671728
vt 0.090676 0.672770
vt 0.088494 0.671990
vt 0.090379 0.671142
vt 0.088509 0.671049
vt 0.090489 0.670552
vt 0.088595 0.670108
vt 0.153229 0.693847
vt 0.123695 0.678932
vt 0.116729 0.678932
vt 0.185961 0.676660
vt 0.188263 0.677388
vt 0.188179 0.658839
vt 0.118505 0.700107
vt 0.116302 0.700107
vt 0.116281 0.699284
vt 0.118505 0.690316
vt 0.108715 0.700107
vt 0.110918 0.700107
vt 0.087437 0.662127
vt 0.086116 0.680937
vt 0.087909 0.674459
vt 0.088190 0.671031
vt 0.088251 0.670094
vt 0.088142 0.671972
vt 0.088309 0.667771
vt 0.087143 0.662198
vt 0.168905 0.695480
vt 0.223866 0.688375
vt 0.227002 0.689533
vt 0.223874 0.696459
vt 0.220738 0.695430
vt 0.220733 0.689539
vt 0.224911 0.688374
vt 0.222821 0.688376
vt 0.220707 0.696462
vt 0.227042 0.696456
vt 0.227042 0.695424
vn 0.0000 1.0000 0.0000
vn -1.0000 -0.0000 0.0000
vn 0.0000 0.0000 1.0000
vn 0.0000 0.0000 -1.0000
vn 0.0000 0.9369 0.3496
vn 1.0000 0.0000 0.0000
vn -0.3324 0.9431 -0.0000
vn 0.0000 -0.9369 0.3496
vn 0.0000 -0.9369 -0.3496
vn 0.0000 0.4663 -0.8846
vn 0.0000 0.9369 -0.3496
vn 0.0008 -1.0000 -0.0073
vn 0.0022 -1.0000 0.0003
vn 0.0000 -1.0000 0.0009
vn 0.3324 0.9431 -0.0000
vn 0.0000 0.5161 -0.8565
vn -0.8583 0.5132 0.0000
vn -0.3324 -0.9431 0.0000
vn 0.8583 0.5132 0.0000
vn 0.0000 0.5161 0.8565
vn 0.0000 0.4663 0.8846
vn 0.3324 -0.9431 0.0000
vn 0.9994 -0.0062 0.0328
vn -0.9982 -0.0283 0.0524
vn 1.0000 0.0005 0.0000
vn 1.0000 0.0008 0.0000
vn 1.0000 -0.0025 -0.0000
vn -0.0007 -1.0000 -0.0076
vn 0.0000 -1.0000 -0.0097
vn -0.0008 -1.0000 -0.0073
vn -0.0023 -1.0000 0.0003
vn 0.0007 -1.0000 -0.0077
vn 1.0000 -0.0057 -0.0001
vn 0.0000 -0.9997 -0.0261
vn 0.4855 -0.8739 -0.0228
vn -0.9995 -0.0318 -0.0008
vn 0.0000 -0.0005 1.0000
vn 0.0049 0.0016 1.0000
vn -0.0044 -0.0040 1.0000
vn -0.0094 0.0000 1.0000
vn -0.0040 0.0019 1.0000
vn 0.0000 -0.0285 0.9996
vn 0.0093 -0.0001 1.0000
vn -0.4855 -0.8739 -0.0228
usemtl MainMaterial
s 1
f 151/1/1 152/2/1 148/3/1 147/4/1
f 18/5/2 19/6/2 20/7/2 17/8/2
f 39/9/3 9/10/3 1/11/3 33/12/3
f 79/13/4 52/14/4 98/15/4 97/16/4
f 32/17/3 2/18/3 10/19/3 35/20/3
f 40/21/5 16/22/5 24/23/5 51/24/5
f 14/25/6 16/22/6 5/26/6 7/27/6
f 14/25/4 7/27/4 3/28/4 12/29/4
f 28/30/4 8/31/4 13/32/4 41/33/4
f 55/34/2 4/35/2 11/36/2 64/37/2
f 59/38/6 6/39/6 15/40/6 60/41/6
f 19/6/4 21/42/4 22/43/4 20/7/4
f 17/8/3 49/44/3 134/45/3
f 12/46/7 9/10/7 17/47/7 20/48/7
f 35/20/8 10/19/8 18/49/8 45/50/8
f 15/40/8 38/51/8 48/52/8 23/53/8
f 142/54/1 143/55/1 137/56/1 136/57/1
f 47/58/8 48/52/8 37/59/8
f 143/55/1 144/60/1 138/61/1 137/56/1
f 92/62/1 95/63/1 96/64/1 93/65/1
f 126/66/1 113/67/1 112/68/1 125/69/1
f 19/70/9 43/71/9 139/72/9
f 145/73/1 146/74/1 142/54/1 140/75/1
f 4/35/4 25/76/4 44/77/4 11/36/4
f 25/76/4 26/78/4 43/71/4 44/77/4
f 50/79/4 27/80/4 42/81/4 139/72/4
f 27/80/4 28/30/4 41/33/4 42/81/4
f 9/10/5 39/9/5 49/82/5 17/47/5
f 84/83/10 94/84/10 114/85/10 115/86/10
f 71/87/2 29/88/2 91/89/2 94/84/2
f 30/90/6 73/91/6 95/63/6 92/62/6
f 6/39/3 29/88/3 38/51/3 15/40/3
f 29/88/3 30/90/3 37/59/3 38/51/3
f 14/25/11 12/29/11 20/92/11 22/93/11
f 31/94/3 32/17/3 35/20/3 36/95/3
f 69/96/2 70/97/2 106/98/2 105/99/2
f 68/100/1 28/30/1 27/80/1 72/101/1
f 30/90/3 31/94/3 36/95/3 37/59/3
f 74/102/1 26/78/1 25/76/1 76/103/1
f 16/22/3 40/21/3 34/104/3 5/26/3
f 31/94/2 93/65/2 96/64/2 75/105/2
f 52/14/2 2/18/2 87/106/2 98/15/2
f 32/17/6 79/13/6 97/16/6 86/107/6
f 74/102/3 72/101/3 107/108/3 108/109/3
f 150/110/1 151/1/1 147/4/1 146/74/1
f 116/111/12 3/112/13 117/113/14
f 74/102/3 76/103/3 138/114/3 144/115/3
f 71/87/2 70/97/2 150/116/2 149/117/2
f 76/103/6 77/118/6 137/119/6 138/114/6
f 78/120/6 77/118/6 110/121/6 111/122/6
f 16/22/15 14/25/15 22/93/15 24/23/15
f 75/105/4 73/91/4 145/123/4 140/124/4
f 70/97/2 69/96/2 151/125/2 150/116/2
f 31/94/1 75/105/1 79/13/1 32/17/1
f 72/101/3 74/102/3 144/115/3 148/126/3
f 73/91/4 71/87/4 149/117/4 145/123/4
f 78/120/6 79/13/6 135/127/6 136/128/6
f 4/35/2 55/34/2 80/129/2 81/130/2
f 59/38/1 58/131/1 70/97/1 71/87/1
f 56/132/6 8/31/6 83/133/6 101/134/6
f 57/135/1 56/132/1 68/100/1 69/96/1
f 88/136/16 81/130/16 129/137/16 124/138/16
f 29/88/1 71/87/1 73/91/1 30/90/1
f 48/139/3 131/140/3 23/141/3
f 21/42/6 23/141/6 24/142/6 22/43/6
f 98/15/17 87/106/17 125/69/17 112/68/17
f 64/37/18 19/70/18 65/143/18
f 52/14/2 53/144/2 66/145/2 67/146/2
f 53/144/2 54/147/2 65/143/2 66/145/2
f 54/147/2 55/34/2 64/37/2 65/143/2
f 2/18/2 52/14/2 67/146/2 10/19/2
f 8/31/6 56/132/6 63/148/6 13/32/6
f 56/132/6 57/135/6 62/149/6 63/148/6
f 57/135/6 58/131/6 61/150/6 62/149/6
f 58/131/6 59/38/6 60/41/6 61/150/6
f 68/100/3 72/101/3 148/126/3 152/151/3
f 79/13/1 78/120/1 53/144/1 52/14/1
f 28/30/2 68/100/2 104/152/2 82/153/2
f 77/118/1 76/103/1 55/34/1 54/147/1
f 86/107/19 97/16/19 113/67/19 126/66/19
f 104/152/20 101/134/20 121/154/20 120/155/20
f 80/129/20 109/156/20 119/157/20 130/158/20
f 82/153/17 104/152/17 120/155/17 128/159/17
f 31/94/3 30/90/3 92/62/3 93/65/3
f 107/108/1 90/160/1 89/161/1 108/109/1
f 9/10/2 12/46/2 3/162/2 1/11/2
f 103/163/1 102/164/1 105/99/1 106/98/1
f 83/133/16 82/153/16 128/159/16 127/165/16
f 111/122/1 110/121/1 100/166/1 99/167/1
f 58/131/6 57/135/6 102/164/6 103/163/6
f 53/144/3 78/120/3 111/122/3 99/167/3
f 25/76/4 4/35/4 81/130/4 88/136/4
f 8/31/4 28/30/4 82/153/4 83/133/4
f 72/101/6 27/80/6 90/160/6 107/108/6
f 77/118/4 54/147/4 100/166/4 110/121/4
f 55/34/3 76/103/3 109/156/3 80/129/3
f 119/157/1 124/138/1 129/137/1 130/158/1
f 59/38/4 71/87/4 94/84/4 84/83/4
f 70/97/3 58/131/3 103/163/3 106/98/3
f 54/147/2 53/144/2 99/167/2 100/166/2
f 26/78/2 74/102/2 108/109/2 89/161/2
f 57/135/4 69/96/4 105/99/4 102/164/4
f 68/100/3 56/132/3 101/134/3 104/152/3
f 2/18/3 32/17/3 86/107/3 87/106/3
f 29/88/3 6/39/3 85/168/3 91/89/3
f 50/79/4 89/161/4 90/160/4
f 76/103/6 25/76/6 88/136/6 109/156/6
f 73/91/4 75/105/4 96/64/4 95/63/4
f 81/130/17 80/129/17 130/158/17 129/137/17
f 94/84/17 91/89/17 122/169/17 114/85/17
f 101/134/19 83/133/19 127/165/19 121/154/19
f 85/168/19 84/83/19 115/86/19 123/170/19
f 123/170/1 115/86/1 114/85/1 122/169/1
f 91/89/21 85/168/21 123/170/21 122/169/21
f 97/16/10 98/15/10 112/68/10 113/67/10
f 109/156/19 88/136/19 124/138/19 119/157/19
f 61/150/22 23/53/22 62/149/22
f 87/106/21 86/107/21 126/66/21 125/69/21
f 33/12/23 116/171/23 49/82/23 39/9/23
f 34/104/24 40/21/24 51/24/24 118/172/24
f 121/154/1 127/165/1 128/159/1 120/155/1
f 46/173/3 45/174/3 134/45/3 133/175/3
f 141/176/3 46/173/3 133/175/3 153/177/3
f 48/139/3 47/178/3 132/179/3 131/140/3
f 47/178/3 141/176/3 153/177/3 132/179/3
f 49/82/25 116/171/26 157/180/27
f 69/96/2 68/100/2 152/151/2 151/125/2
f 79/13/4 75/105/4 140/124/4 135/127/4
f 77/118/6 78/120/6 136/128/6 137/119/6
f 147/4/1 148/3/1 144/60/1 143/55/1
f 149/181/1 150/110/1 146/74/1 145/73/1
f 146/74/1 147/4/1 143/55/1 142/54/1
f 26/78/4 50/79/4 139/72/4 43/71/4
f 140/75/1 142/54/1 136/57/1 135/182/1
f 6/39/6 59/38/6 84/83/6 85/168/6
f 134/45/3 45/174/3 18/5/3
f 18/5/3 17/8/3 134/45/3
f 37/59/8 36/95/8 141/183/8
f 35/20/8 45/50/8 36/95/8
f 141/183/8 47/58/8 37/59/8
f 45/50/8 46/184/8 36/95/8
f 48/52/8 38/51/8 37/59/8
f 36/95/8 46/184/8 141/183/8
f 139/72/9 42/81/9 21/185/9
f 41/33/9 13/32/9 21/185/9
f 21/185/9 19/70/9 139/72/9
f 44/77/9 43/71/9 19/70/9
f 19/70/9 11/36/9 44/77/9
f 42/81/9 41/33/9 21/185/9
f 5/186/28 34/187/29 118/188/30
f 7/189/31 5/186/28 118/188/30
f 7/189/31 118/188/30 117/113/14
f 1/190/32 3/112/13 116/111/12
f 116/111/12 33/191/29 1/190/32
f 7/189/31 117/113/14 3/112/13
f 24/142/3 23/141/3 131/140/3
f 131/140/3 51/192/3 24/142/3
f 18/49/18 10/19/18 67/146/18
f 66/145/18 65/143/18 18/49/18
f 18/49/18 67/146/18 66/145/18
f 11/36/18 19/70/18 64/37/18
f 18/49/18 65/143/18 19/70/18
f 90/160/4 27/80/4 50/79/4
f 50/79/4 26/78/4 89/161/4
f 13/32/22 63/148/22 21/185/22
f 61/150/22 60/41/22 23/53/22
f 21/185/22 63/148/22 62/149/22
f 60/41/22 15/40/22 23/53/22
f 21/185/22 62/149/22 23/53/22
f 134/45/33 49/44/25 157/193/27 156/194/33
f 132/179/34 153/177/34 159/195/34 160/196/34
f 153/177/34 133/175/34 158/197/34 159/195/34
f 51/192/2 131/140/2 154/198/2 155/199/2
f 133/175/35 134/45/35 156/194/35 158/197/35
f 118/172/36 51/24/36 155/200/36
f 159/201/37 156/202/38 117/203/39
f 155/204/40 154/205/41 117/203/39
f 159/201/37 158/206/3 156/202/38
f 154/205/41 160/207/3 159/201/37
f 117/203/42 118/208/42 155/204/42
f 116/209/42 117/203/42 157/210/42
f 154/205/41 159/201/37 117/203/39
f 156/202/38 157/210/43 117/203/39
f 131/140/44 132/179/44 160/196/44 154/198/44
