# Blender 3.5.0
# www.blender.org
mtllib crate.mtl
o Wood_container1
v -0.831092 -0.831092 0.961262
v 0.831092 -0.831092 0.961262
v 0.831092 0.831091 0.961263
v -0.831092 0.831091 0.961263
v -0.831092 -0.831091 -0.961263
v -0.831092 0.831092 -0.961262
v 0.831092 0.831092 -0.961262
v 0.831092 -0.831091 -0.961263
v -0.831092 -0.961263 0.831091
v -0.831092 -0.961262 -0.831092
v 0.831092 -0.961262 -0.831092
v 0.831092 -0.961263 0.831091
v 0.961262 -0.831092 0.831091
v 0.961262 -0.831091 -0.831092
v 0.961262 0.831092 -0.831091
v 0.961262 0.831091 0.831092
v 0.831092 0.961262 0.831092
v 0.831092 0.961263 -0.831091
v -0.831092 0.961263 -0.831091
v -0.831092 0.961262 0.831092
v -0.961262 0.831091 0.831092
v -0.961262 0.831092 -0.831091
v -0.961262 -0.831091 -0.831092
v -0.961262 -0.831092 0.831091
v -1.001315 -1.001315 1.001315
v 1.001315 -1.001315 1.001315
v 0.831092 -0.831092 1.001315
v -0.831092 -0.831092 1.001315
v 1.001315 1.001315 1.001315
v 0.831092 0.831091 1.001315
v -1.001315 1.001315 1.001315
v -0.831092 0.831091 1.001315
v -1.001315 -1.001315 -1.001315
v -1.001315 1.001315 -1.001315
v -0.831092 0.831092 -1.001315
v -0.831092 -0.831091 -1.001315
v 1.001315 1.001315 -1.001315
v 0.831092 0.831092 -1.001315
v 1.001315 -1.001315 -1.001315
v 0.831092 -0.831091 -1.001315
v -0.831092 -1.001315 -0.831092
v -0.831092 -1.001315 0.831091
v 0.831092 -1.001315 -0.831092
v 0.831092 -1.001315 0.831091
v 1.001315 -0.831091 -0.831092
v 1.001315 -0.831092 0.831091
v 1.001315 0.831092 -0.831091
v 1.001315 0.831091 0.831092
v 0.831092 1.001315 -0.831091
v 0.831092 1.001315 0.831092
v -0.831092 1.001315 -0.831091
v -0.831092 1.001315 0.831092
v -1.001315 0.831092 -0.831091
v -1.001315 0.831091 0.831092
v -1.001315 -0.831091 -0.831092
v -1.001315 -0.831092 0.831091
v -1.001315 1.001315 1.001315
v -1.001315 1.001315 1.001315
v -1.001315 1.001315 1.001315
v -1.001315 1.001315 1.001315
v -1.001315 1.001315 1.001315
v -0.831092 1.001315 0.831092
v -0.831092 1.001315 0.831092
v -0.831092 1.001315 0.831092
v -1.001315 1.001315 -1.001315
v -1.001315 1.001315 -1.001315
v -1.001315 1.001315 -1.001315
v -1.001315 1.001315 -1.001315
v -1.001315 1.001315 -1.001315
v -0.831092 1.001315 -0.831091
v -0.831092 1.001315 -0.831091
v -0.831092 1.001315 -0.831091
v 0.831092 1.001315 -0.831091
v 0.831092 1.001315 -0.831091
v 0.831092 1.001315 -0.831091
v 0.831092 1.001315 0.831092
v 0.831092 1.001315 0.831092
v 0.831092 1.001315 0.831092
v 0.831092 -1.001315 -0.831092
v 0.831092 -1.001315 -0.831092
v 0.831092 -1.001315 -0.831092
v 0.831092 -1.001315 0.831091
v 0.831092 -1.001315 0.831091
v 0.831092 -1.001315 0.831091
v 0.831092 0.961263 -0.831091
v 0.831092 0.961263 -0.831091
v -0.831092 0.961263 -0.831091
v -0.831092 0.961263 -0.831091
v -1.001315 -1.001315 1.001315
v -1.001315 -1.001315 1.001315
v -1.001315 -1.001315 1.001315
v -1.001315 -1.001315 1.001315
v -1.001315 -1.001315 1.001315
v -0.831092 -1.001315 0.831091
v -0.831092 -1.001315 0.831091
v -0.831092 -1.001315 0.831091
v -0.961262 0.831092 -0.831091
v -0.961262 0.831092 -0.831091
v -1.001315 0.831092 -0.831091
v -1.001315 0.831092 -0.831091
v -1.001315 0.831092 -0.831091
v -0.831092 -0.831091 -0.961263
v -0.831092 -0.831091 -0.961263
v -0.831092 -0.831091 -1.001315
v -0.831092 -0.831091 -1.001315
v -0.831092 -0.831091 -1.001315
v 1.001315 -1.001315 -1.001315
v 1.001315 -1.001315 -1.001315
v 1.001315 -1.001315 -1.001315
v 1.001315 -1.001315 -1.001315
v 1.001315 -1.001315 -1.001315
v 0.831092 -0.831091 -1.001315
v 0.831092 -0.831091 -1.001315
v 0.831092 -0.831091 -1.001315
v 0.831092 0.831091 1.001315
v 0.831092 0.831091 1.001315
v 0.831092 0.831091 1.001315
v -0.831092 0.831091 1.001315
v -0.831092 0.831091 1.001315
v -0.831092 0.831091 1.001315
v -0.961262 -0.831091 -0.831092
v -0.961262 -0.831091 -0.831092
v -0.831092 0.961262 0.831092
v -0.831092 0.961262 0.831092
v 1.001315 1.001315 -1.001315
v 1.001315 1.001315 -1.001315
v 1.001315 1.001315 -1.001315
v 1.001315 1.001315 -1.001315
v 1.001315 1.001315 -1.001315
v 0.831092 0.831092 -1.001315
v 0.831092 0.831092 -1.001315
v 0.831092 0.831092 -1.001315
v 0.961262 0.831091 0.831092
v 0.961262 0.831091 0.831092
v 1.001315 0.831091 0.831092
v 1.001315 0.831091 0.831092
v 1.001315 0.831091 0.831092
v 0.831092 -0.831091 -0.961263
v 0.831092 -0.831091 -0.961263
v 1.001315 -0.831091 -0.831092
v 1.001315 -0.831091 -0.831092
v 1.001315 -0.831091 -0.831092
v 1.001315 -0.831092 0.831091
v 1.001315 -0.831092 0.831091
v 1.001315 -0.831092 0.831091
v -0.831092 -1.001315 -0.831092
v -0.831092 -1.001315 -0.831092
v -0.831092 -1.001315 -0.831092
v 0.961262 -0.831092 0.831091
v 0.961262 -0.831092 0.831091
v 0.831092 -0.831092 1.001315
v 0.831092 -0.831092 1.001315
v 0.831092 -0.831092 1.001315
v 0.961262 0.831092 -0.831091
v 0.961262 0.831092 -0.831091
v 1.001315 0.831092 -0.831091
v 1.001315 0.831092 -0.831091
v 1.001315 0.831092 -0.831091
v -0.831092 -0.961263 0.831091
v -0.831092 -0.961263 0.831091
v -0.831092 0.831092 -0.961262
v -0.831092 0.831092 -0.961262
v -1.001315 -0.831091 -0.831092
v -1.001315 -0.831091 -0.831092
v -1.001315 -0.831091 -0.831092
v -0.831092 0.831092 -1.001315
v -0.831092 0.831092 -1.001315
v -0.831092 0.831092 -1.001315
v -0.831092 -0.961262 -0.831092
v -0.831092 -0.961262 -0.831092
v -0.961262 0.831091 0.831092
v -0.961262 0.831091 0.831092
v -0.961262 -0.831092 0.831091
v -0.961262 -0.831092 0.831091
v 1.001315 -1.001315 1.001315
v 1.001315 -1.001315 1.001315
v 1.001315 -1.001315 1.001315
v 1.001315 -1.001315 1.001315
v 1.001315 -1.001315 1.001315
v -1.001315 -1.001315 -1.001315
v -1.001315 -1.001315 -1.001315
v -1.001315 -1.001315 -1.001315
v -1.001315 -1.001315 -1.001315
v -1.001315 -1.001315 -1.001315
v 0.831092 0.831092 -0.961262
v 0.831092 0.831092 -0.961262
v 0.831092 0.831091 0.961263
v 0.831092 0.831091 0.961263
v -1.001315 0.831091 0.831092
v -1.001315 0.831091 0.831092
v -1.001315 0.831091 0.831092
v -0.831092 -0.831092 1.001315
v -0.831092 -0.831092 1.001315
v -0.831092 -0.831092 1.001315
v 0.961262 -0.831091 -0.831092
v 0.961262 -0.831091 -0.831092
v 0.831092 0.961262 0.831092
v 0.831092 0.961262 0.831092
v -0.831092 -0.831092 0.961262
v -0.831092 -0.831092 0.961262
v -0.831092 0.831091 0.961263
v -0.831092 0.831091 0.961263
v 1.001315 1.001315 1.001315
v 1.001315 1.001315 1.001315
v 1.001315 1.001315 1.001315
v 1.001315 1.001315 1.001315
v 1.001315 1.001315 1.001315
v 0.831092 -0.961262 -0.831092
v 0.831092 -0.961262 -0.831092
v -1.001315 -0.831092 0.831091
v -1.001315 -0.831092 0.831091
v -1.001315 -0.831092 0.831091
v 0.831092 -0.831092 0.961262
v 0.831092 -0.831092 0.961262
v 0.831092 -0.961263 0.831091
v 0.831092 -0.961263 0.831091
vn -0.0000 -0.0000 1.0000
vn -0.0000 -0.0000 -1.0000
vn -0.0000 -1.0000 -0.0000
vn 1.0000 -0.0000 -0.0000
vn -0.0000 1.0000 -0.0000
vn -1.0000 -0.0000 -0.0000
vt 0.056200 0.549000
vt 0.454300 0.549000
vt 0.489900 0.528500
vt 0.056200 0.947100
vt 0.489900 0.510400
vt 0.454300 0.947100
vt 0.056200 0.947100
vt 0.014400 0.510400
vt 0.489900 0.510400
vt 0.014400 0.510400
vt 0.014400 0.510300
vt 0.553400 0.452400
vt 0.553400 0.550900
vt 0.014400 0.510300
vt 0.489900 0.528600
vt 0.489900 0.528600
vt 0.058100 0.452400
vt 0.058100 0.058200
vt 0.452300 0.058200
vt 0.489900 0.528600
vt 0.553400 0.945200
vt 0.014400 0.510400
vt 0.947700 0.550900
vt 0.553400 0.550900
vt 0.992800 0.497600
vt 0.508300 0.497600
vt 0.456300 0.547000
vt 0.054200 0.547000
vt 0.012900 0.497600
vt 0.456300 0.949100
vt 0.497400 0.497600
vt 0.054200 0.949100
vt 0.497500 0.505800
vt 0.497400 0.013100
vt 0.456300 0.949100
vt 0.489900 0.528600
vt 0.013000 0.990300
vt 0.054200 0.949100
vt 0.013000 0.505800
vt 0.054200 0.547000
vt 0.951600 0.054200
vt 0.951600 0.456400
vt 0.549400 0.054200
vt 0.549400 0.456400
vt 0.951600 0.547000
vt 0.549500 0.547000
vt 0.489900 0.510400
vt 0.489900 0.510400
vt 0.054100 0.054200
vt 0.054100 0.456400
vt 0.456300 0.054200
vt 0.456300 0.456400
vt 0.014400 0.528600
vt 0.489900 0.528600
vt 0.014400 0.528600
vt 0.549500 0.547000
vt 0.013000 0.990300
vt 0.508300 0.990300
vt 0.013000 0.990300
vt 0.497400 0.497600
vt 0.508300 0.990300
vt 0.489900 0.510400
vt 0.456300 0.456400
vt 0.489900 0.528600
vt 0.497500 0.990300
vt 0.497400 0.013100
vt 0.497500 0.990300
vt 0.992800 0.990300
vt 0.992800 0.990300
vt 0.489900 0.510400
vt 0.456300 0.054200
vt 0.014400 0.510400
vt 0.014400 0.528500
vt 0.054100 0.054200
vt 0.014400 0.510400
vt 0.054100 0.456400
vt 0.489900 0.528500
vt 0.014400 0.528600
vt 0.549400 0.054200
vt 0.014400 0.528500
vt 0.014400 0.510400
vt 0.549400 0.456400
vt 0.489900 0.510400
vt 0.014400 0.510400
vt 0.014400 0.510300
vt 0.014400 0.528600
vt 0.489900 0.528600
vt 0.014400 0.528600
vt 0.013000 0.505800
vt 0.013000 0.505800
vt 0.508300 0.505800
vt 0.992800 0.497600
vt 0.508300 0.505800
vt 0.951600 0.456400
vt 0.489900 0.528600
vt 0.489900 0.510400
vt 0.947700 0.945200
vt 0.489900 0.510400
vt 0.951600 0.949100
vt 0.951600 0.949100
vt 0.489900 0.528600
vt 0.454300 0.549000
vt 0.014400 0.510400
vt 0.456300 0.547000
vt 0.456300 0.547000
vt 0.014400 0.528600
vt 0.992800 0.505800
vt 0.013000 0.505800
vt 0.508300 0.013100
vt 0.508300 0.013100
vt 0.992800 0.505800
vt 0.014400 0.528600
vt 0.054200 0.547000
vt 0.489900 0.528600
vt 0.456300 0.949100
vt 0.489900 0.510300
vt 0.014400 0.510300
vt 0.054200 0.949100
vt 0.489900 0.510300
vt 0.014400 0.510300
vt 0.014400 0.510400
vt 0.014400 0.528600
vt 0.452300 0.452400
vt 0.489900 0.510400
vt 0.013000 0.990300
vt 0.992800 0.990300
vt 0.012900 0.013100
vt 0.992800 0.990300
vt 0.012900 0.013100
vt 0.014400 0.528500
vt 0.054200 0.949100
vt 0.489900 0.528600
vt 0.553400 0.945200
vt 0.014400 0.528600
vt 0.549500 0.949100
vt 0.549500 0.949100
vt 0.014400 0.510400
vt 0.056200 0.549000
vt 0.489900 0.510400
vt 0.014400 0.528500
vt 0.951600 0.547000
vt 0.014400 0.510400
vt 0.489900 0.528500
vt 0.549500 0.547000
vt 0.489900 0.510400
vt 0.014400 0.528600
vt 0.951600 0.054200
vt 0.489900 0.528500
vt 0.489900 0.510300
vt 0.489900 0.528600
vt 0.456300 0.547000
vt 0.489900 0.510300
vt 0.014400 0.510300
vt 0.947700 0.945200
vt 0.014400 0.528600
vt 0.951600 0.949100
vt 0.951600 0.949100
vt 0.014400 0.510400
vt 0.947600 0.452400
vt 0.489900 0.528600
vt 0.014400 0.510400
vt 0.489900 0.510400
vt 0.951600 0.547000
vt 0.951600 0.547000
vt 0.014400 0.510400
vt 0.456300 0.949100
vt 0.014400 0.528600
vt 0.489900 0.528500
vt 0.947600 0.058200
vt 0.489900 0.510300
vt 0.489900 0.510400
vt 0.014400 0.510400
vt 0.489900 0.528600
vt 0.489900 0.510400
vt 0.497500 0.505800
vt 0.508300 0.505800
vt 0.497500 0.505800
vt 0.508300 0.497600
vt 0.508300 0.505800
vt 0.497500 0.505800
vt 0.992800 0.013100
vt 0.992800 0.505800
vt 0.992800 0.013100
vt 0.992800 0.505800
vt 0.014400 0.510400
vt 0.489900 0.510400
vt 0.454300 0.947100
vt 0.014400 0.528500
vt 0.549500 0.949100
vt 0.549500 0.949100
vt 0.014400 0.528500
vt 0.054200 0.547000
vt 0.014400 0.510300
vt 0.489900 0.510300
vt 0.947700 0.550900
vt 0.014400 0.528600
vt 0.489900 0.510300
vt 0.014400 0.510400
vt 0.014400 0.528500
vt 0.489900 0.528500
vt 0.489900 0.528500
vt 0.014400 0.528500
vt 0.508300 0.990300
vt 0.497500 0.990300
vt 0.497500 0.990300
vt 0.012900 0.497600
vt 0.508300 0.990300
vt 0.553400 0.058200
vt 0.014400 0.528600
vt 0.489900 0.510400
vt 0.549500 0.547000
vt 0.489900 0.528500
vt 0.489900 0.528500
vt 0.014400 0.528500
vt 0.489900 0.528600
vt 0.014400 0.528600
s 1
f 1/1/1 2/2/1 187/187/1
f 102/102/2 6/6/2 7/7/2
f 159/159/3 169/169/3 208/208/3
f 13/13/4 195/195/4 154/154/4
f 17/17/5 18/18/5 19/19/5
f 21/21/6 97/97/6 24/24/6
f 90/90/1 175/175/1 151/151/1
f 177/177/1 204/204/1 115/115/1
f 205/205/1 59/59/1 32/32/1
f 57/57/1 89/89/1 28/28/1
f 33/33/2 65/65/2 105/105/2
f 67/67/2 37/37/2 38/38/2
f 125/125/2 39/39/2 131/131/2
f 108/108/2 180/180/2 104/104/2
f 25/25/3 181/181/3 42/42/3
f 183/183/3 110/110/3 79/79/3
f 109/109/3 26/26/3 43/43/3
f 178/178/3 92/92/3 94/94/3
f 176/176/4 107/107/4 45/45/4
f 111/111/4 126/126/4 156/156/4
f 128/128/4 203/203/4 135/135/4
f 207/207/4 179/179/4 144/144/4
f 29/29/5 127/127/5 50/50/5
f 129/129/5 34/34/5 51/51/5
f 66/66/5 31/31/5 71/71/5
f 60/60/5 206/206/5 76/76/5
f 58/58/6 68/68/6 189/189/6
f 69/69/6 182/182/6 100/100/6
f 184/184/6 91/91/6 164/164/6
f 93/93/6 61/61/6 211/211/6
f 213/213/5 199/199/5 193/193/5
f 153/153/6 116/116/6 214/214/6
f 117/117/3 119/119/3 201/201/3
f 200/200/4 202/202/4 120/120/4
f 36/36/4 167/167/4 161/161/4
f 168/168/3 130/130/3 185/185/3
f 132/132/6 112/112/6 186/186/6
f 114/114/5 106/106/5 103/103/5
f 95/95/4 146/146/4 10/10/4
f 148/148/1 80/80/1 11/11/1
f 81/81/6 83/83/6 209/209/6
f 84/84/2 96/96/2 160/160/2
f 143/143/5 140/140/5 14/14/5
f 142/142/1 47/47/1 15/15/1
f 158/158/3 48/48/3 16/16/3
f 137/137/2 145/145/2 150/150/2
f 77/77/6 73/73/6 197/197/6
f 75/75/1 70/70/1 87/87/1
f 72/72/4 62/62/4 20/20/4
f 64/64/2 78/78/2 198/198/2
f 54/54/3 53/53/3 22/22/3
f 101/101/1 55/55/1 121/121/1
f 165/165/5 210/210/5 173/173/5
f 212/212/2 191/191/2 172/172/2
f 4/4/1 1/1/1 187/187/1
f 138/138/2 102/102/2 7/7/2
f 12/12/3 159/159/3 208/208/3
f 133/133/4 13/13/4 154/154/4
f 123/123/5 17/17/5 19/19/5
f 97/97/6 23/23/6 24/24/6
f 192/192/1 90/90/1 151/151/1
f 27/27/1 177/177/1 115/115/1
f 30/30/1 205/205/1 32/32/1
f 118/118/1 57/57/1 28/28/1
f 65/65/2 166/166/2 105/105/2
f 35/35/2 67/67/2 38/38/2
f 39/39/2 40/40/2 131/131/2
f 113/113/2 108/108/2 104/104/2
f 181/181/3 147/147/3 42/42/3
f 41/41/3 183/183/3 79/79/3
f 26/26/3 44/44/3 43/43/3
f 82/82/3 178/178/3 94/94/3
f 46/46/4 176/176/4 45/45/4
f 141/141/4 111/111/4 156/156/4
f 157/157/4 128/128/4 135/135/4
f 136/136/4 207/207/4 144/144/4
f 127/127/5 49/49/5 50/50/5
f 74/74/5 129/129/5 51/51/5
f 31/31/5 52/52/5 71/71/5
f 63/63/5 60/60/5 76/76/5
f 68/68/6 99/99/6 189/189/6
f 182/182/6 163/163/6 100/100/6
f 91/91/6 56/56/6 164/164/6
f 61/61/6 190/190/6 211/211/6
f 152/152/5 213/213/5 193/193/5
f 116/116/6 3/3/6 214/214/6
f 188/188/3 117/117/3 201/201/3
f 194/194/4 200/200/4 120/120/4
f 5/5/4 36/36/4 161/161/4
f 162/162/3 168/168/3 185/185/3
f 112/112/6 8/8/6 186/186/6
f 139/139/5 114/114/5 103/103/5
f 9/9/4 95/95/4 10/10/4
f 170/170/1 148/148/1 11/11/1
f 83/83/6 215/215/6 209/209/6
f 216/216/2 84/84/2 160/160/2
f 149/149/5 143/143/5 14/14/5
f 196/196/1 142/142/1 15/15/1
f 155/155/3 158/158/3 16/16/3
f 134/134/2 137/137/2 150/150/2
f 73/73/6 85/85/6 197/197/6
f 86/86/1 75/75/1 87/87/1
f 88/88/4 72/72/4 20/20/4
f 124/124/2 64/64/2 198/198/2
f 171/171/3 54/54/3 22/22/3
f 98/98/1 101/101/1 121/121/1
f 122/122/5 165/165/5 173/173/5
f 174/174/2 212/212/2 172/172/2
